<svg xmlns="http://www.w3.org/2000/svg" xmlns:xlink="http://www.w3.org/1999/xlink" width="216.386" height="259.527" viewBox="0 0 216.386 259.527"><defs><linearGradient id="a" x1="0.5" x2="0.5" y2="1" gradientUnits="objectBoundingBox"><stop offset="0" stop-color="#ffbf69"/><stop offset="1" stop-color="#ff6536"/></linearGradient><filter id="b" x="0" y="0" width="216.386" height="259.527" filterUnits="userSpaceOnUse"><feOffset dy="3" input="SourceAlpha"/><feGaussianBlur stdDeviation="3" result="c"/><feFlood flood-opacity="0.161"/><feComposite operator="in" in2="c"/><feComposite in="SourceGraphic"/></filter><filter id="e" x="21.094" y="201.433" width="29.05" height="29.05" filterUnits="userSpaceOnUse"><feOffset dy="3" input="SourceAlpha"/><feGaussianBlur stdDeviation="3" result="f"/><feFlood flood-opacity="0.161"/><feComposite operator="in" in2="f"/><feComposite in="SourceGraphic"/></filter><filter id="h" x="21.094" y="131.238" width="29.05" height="29.05" filterUnits="userSpaceOnUse"><feOffset dy="3" input="SourceAlpha"/><feGaussianBlur stdDeviation="3" result="i"/><feFlood flood-opacity="0.161"/><feComposite operator="in" in2="i"/><feComposite in="SourceGraphic"/></filter><filter id="k" x="21.094" y="169.432" width="29.05" height="29.05" filterUnits="userSpaceOnUse"><feOffset dy="3" input="SourceAlpha"/><feGaussianBlur stdDeviation="3" result="l"/><feFlood flood-opacity="0.161"/><feComposite operator="in" in2="l"/><feComposite in="SourceGraphic"/></filter><filter id="n" x="21.094" y="93.044" width="29.05" height="29.05" filterUnits="userSpaceOnUse"><feOffset dy="3" input="SourceAlpha"/><feGaussianBlur stdDeviation="3" result="o"/><feFlood flood-opacity="0.161"/><feComposite operator="in" in2="o"/><feComposite in="SourceGraphic"/></filter><filter id="q" x="21.094" y="53.135" width="29.05" height="29.05" filterUnits="userSpaceOnUse"><feOffset dy="3" input="SourceAlpha"/><feGaussianBlur stdDeviation="3" result="r"/><feFlood flood-opacity="0.161"/><feComposite operator="in" in2="r"/><feComposite in="SourceGraphic"/></filter><filter id="t" x="21.094" y="22.135" width="29.05" height="29.05" filterUnits="userSpaceOnUse"><feOffset dy="3" input="SourceAlpha"/><feGaussianBlur stdDeviation="3" result="u"/><feFlood flood-opacity="0.161"/><feComposite operator="in" in2="u"/><feComposite in="SourceGraphic"/></filter><filter id="w" x="53.669" y="203.672" width="137" height="26" filterUnits="userSpaceOnUse"><feOffset dy="3" input="SourceAlpha"/><feGaussianBlur stdDeviation="3" result="x"/><feFlood flood-opacity="0.161"/><feComposite operator="in" in2="x"/><feComposite in="SourceGraphic"/></filter><filter id="z" x="52.669" y="183.035" width="117" height="26" filterUnits="userSpaceOnUse"><feOffset dy="3" input="SourceAlpha"/><feGaussianBlur stdDeviation="3" result="aa"/><feFlood flood-opacity="0.161"/><feComposite operator="in" in2="aa"/><feComposite in="SourceGraphic"/></filter><filter id="ac" x="52.669" y="162.398" width="122" height="26" filterUnits="userSpaceOnUse"><feOffset dy="3" input="SourceAlpha"/><feGaussianBlur stdDeviation="3" result="ad"/><feFlood flood-opacity="0.161"/><feComposite operator="in" in2="ad"/><feComposite in="SourceGraphic"/></filter><filter id="af" x="52.669" y="141.76" width="111" height="26" filterUnits="userSpaceOnUse"><feOffset dy="3" input="SourceAlpha"/><feGaussianBlur stdDeviation="3" result="ag"/><feFlood flood-opacity="0.161"/><feComposite operator="in" in2="ag"/><feComposite in="SourceGraphic"/></filter><filter id="ai" x="52.669" y="121.123" width="129" height="26" filterUnits="userSpaceOnUse"><feOffset dy="3" input="SourceAlpha"/><feGaussianBlur stdDeviation="3" result="aj"/><feFlood flood-opacity="0.161"/><feComposite operator="in" in2="aj"/><feComposite in="SourceGraphic"/></filter><filter id="al" x="52.669" y="100.486" width="134" height="26" filterUnits="userSpaceOnUse"><feOffset dy="3" input="SourceAlpha"/><feGaussianBlur stdDeviation="3" result="am"/><feFlood flood-opacity="0.161"/><feComposite operator="in" in2="am"/><feComposite in="SourceGraphic"/></filter><filter id="ao" x="52.669" y="79.849" width="125" height="26" filterUnits="userSpaceOnUse"><feOffset dy="3" input="SourceAlpha"/><feGaussianBlur stdDeviation="3" result="ap"/><feFlood flood-opacity="0.161"/><feComposite operator="in" in2="ap"/><feComposite in="SourceGraphic"/></filter><filter id="ar" x="52.669" y="57.383" width="117" height="26" filterUnits="userSpaceOnUse"><feOffset dy="3" input="SourceAlpha"/><feGaussianBlur stdDeviation="3" result="as"/><feFlood flood-opacity="0.161"/><feComposite operator="in" in2="as"/><feComposite in="SourceGraphic"/></filter><filter id="au" x="53.669" y="37.383" width="117" height="26" filterUnits="userSpaceOnUse"><feOffset dy="3" input="SourceAlpha"/><feGaussianBlur stdDeviation="3" result="av"/><feFlood flood-opacity="0.161"/><feComposite operator="in" in2="av"/><feComposite in="SourceGraphic"/></filter></defs><g transform="translate(-65.831 -208.117)"><g transform="matrix(1, 0, 0, 1, 65.83, 208.12)" filter="url(#b)"><path d="M183.386,241.527H15a15,15,0,0,1-15-15V15A15,15,0,0,1,15,0H183.386a15,15,0,0,1,15,15V226.526a15,15,0,0,1-15,15ZM24.251,10.725a14.516,14.516,0,0,0-14.5,14.5V220.27a14.516,14.516,0,0,0,14.5,14.5H174.1a14.516,14.516,0,0,0,14.5-14.5V25.225a14.516,14.516,0,0,0-14.5-14.5Z" transform="translate(9 6)" fill="url(#a)"/></g><g transform="matrix(1, 0, 0, 1, 65.83, 208.12)" filter="url(#e)"><rect width="11.05" height="11.05" rx="5.525" transform="translate(30.09 207.43)" fill="url(#a)"/></g><g transform="matrix(1, 0, 0, 1, 65.83, 208.12)" filter="url(#h)"><rect width="11.05" height="11.05" rx="5.525" transform="translate(30.09 137.24)" fill="url(#a)"/></g><g transform="matrix(1, 0, 0, 1, 65.83, 208.12)" filter="url(#k)"><rect width="11.05" height="11.05" rx="5.525" transform="translate(30.09 175.43)" fill="url(#a)"/></g><g transform="matrix(1, 0, 0, 1, 65.83, 208.12)" filter="url(#n)"><rect width="11.05" height="11.05" rx="5.525" transform="translate(30.09 99.04)" fill="url(#a)"/></g><g transform="matrix(1, 0, 0, 1, 65.83, 208.12)" filter="url(#q)"><rect width="11.05" height="11.05" rx="5.525" transform="translate(30.09 59.13)" fill="url(#a)"/></g><g transform="matrix(1, 0, 0, 1, 65.83, 208.12)" filter="url(#t)"><rect width="11.05" height="11.05" rx="5.525" transform="translate(30.09 28.13)" fill="url(#a)"/></g><g transform="matrix(1, 0, 0, 1, 65.83, 208.12)" filter="url(#w)"><rect width="119" height="8" transform="translate(62.67 209.67)" fill="url(#a)"/></g><g transform="matrix(1, 0, 0, 1, 65.83, 208.12)" filter="url(#z)"><rect width="99" height="8" transform="translate(61.67 189.04)" fill="url(#a)"/></g><g transform="matrix(1, 0, 0, 1, 65.83, 208.12)" filter="url(#ac)"><rect width="104" height="8" transform="translate(61.67 168.4)" fill="url(#a)"/></g><g transform="matrix(1, 0, 0, 1, 65.83, 208.12)" filter="url(#af)"><rect width="93" height="8" transform="translate(61.67 147.76)" fill="url(#a)"/></g><g transform="matrix(1, 0, 0, 1, 65.83, 208.12)" filter="url(#ai)"><rect width="111" height="8" transform="translate(61.67 127.12)" fill="url(#a)"/></g><g transform="matrix(1, 0, 0, 1, 65.83, 208.12)" filter="url(#al)"><rect width="116" height="8" transform="translate(61.67 106.49)" fill="url(#a)"/></g><g transform="matrix(1, 0, 0, 1, 65.83, 208.12)" filter="url(#ao)"><rect width="107" height="8" transform="translate(61.67 85.85)" fill="url(#a)"/></g><g transform="matrix(1, 0, 0, 1, 65.83, 208.12)" filter="url(#ar)"><rect width="99" height="8" transform="translate(61.67 63.38)" fill="url(#a)"/></g><g transform="matrix(1, 0, 0, 1, 65.83, 208.12)" filter="url(#au)"><rect width="99" height="8" transform="translate(62.67 43.38)" fill="url(#a)"/></g></g></svg>