<svg xmlns="http://www.w3.org/2000/svg" xmlns:xlink="http://www.w3.org/1999/xlink" width="851.262" height="789.298" viewBox="0 0 851.262 789.298"><defs><linearGradient id="a" x1="0.5" x2="0.5" y2="1.213" gradientUnits="objectBoundingBox"><stop offset="0" stop-color="#fba331"/><stop offset="1" stop-color="#ff8686"/></linearGradient><filter id="b" x="0" y="0" width="851.262" height="789.298" filterUnits="userSpaceOnUse"><feOffset dy="7" input="SourceAlpha"/><feGaussianBlur stdDeviation="3" result="c"/><feFlood flood-opacity="0.161"/><feComposite operator="in" in2="c"/><feComposite in="SourceGraphic"/></filter></defs><g transform="matrix(1, 0, 0, 1, 0, 0)" filter="url(#b)"><path d="M-916.484,854.224h-30.592V409.045c42.258-14,77.342-34.576,94.147-65,27.821-50.26,25.221-105.279,10.105-130.671-20.659-34.742-66.469-53.8-123.294-53.8-116.12,0-260.811,146.784-262.023,148.083-14.957,16.045-27.792,18.368-42.388,9.862-14.55-8.456-19.234-26.584-10.482-40.566,2.18-3.444,30.9-41.423,72.923-82.1-26.681-28.256-130.3-52.8-185.419-51.478-50.53,1.176-88.79,19.874-119.83,64.437-17.584,25.338-22.956,50.606-16.357,76.884,19.028,75.584,124.884,135.416,125.865,136.052a28.789,28.789,0,0,1,13.586,15.213V854.224h-28.5c-17.007-.008-30.793-13.21-30.809-29.5V463.136c-46.2-26.6-126.746-84.685-147.262-165.289-10.885-42.738,2.469-82.058,29.9-121.447,53.26-76.455,122.675-92.208,171.978-93.4,76.331-1.908,192.6,32.073,229.7,71.394,41.493-30.15,142.121-60.4,198.615-60.4,79.131,0,143.652,36.486,176.525,88.89l.058.055c32.946,52.487,29.928,119.621-8.418,188.871-18.71,33.553-49.982,58.227-87.2,76.067V824.668a28.9,28.9,0,0,1-9.013,20.9,31.518,31.518,0,0,1-21.8,8.654Zm-373.895-19.991V642.614c0-10.545,26.045-57.6-12.748-98.455-10.538-11.054-17.478-21.517-17.632-39.421-.018-1.544.377-5.47.377-5.47l15.164-104.827h7.163l-2.914,123.619h13.176l2.365-123.586h8.328l1.182,123.586h12.234V394.473h8.224l2.537,122.764,13.708.149-2.759-122.913,7.2-.163,16.313,110.576v3.285c-1.063,17.74-7.951,26.61-14.668,33.509a.692.692,0,0,0-.138.213c-36.805,37.04-15.575,88.879-15.575,101.2V833.873h-.119a.459.459,0,0,1,.119.36c0,10.995-9.3,19.908-20.767,19.908S-1290.379,845.228-1290.379,834.233Zm107.077.74c0-.23.12-.379.12-.494l-.12.115s-1.646-163.236-.874-174.471c.531-7.7-21.831-12.238-21.385-61.268,2.091-228.2,56-229.054,56-229.054l6.066-.64s.361,262.742.24,274.5v47.207c.121,13.008.121,143.607.121,143.607l-.121.115c.121,0,.121.264,0,.379-.316,10.38-9.188,18.64-20.023,18.64S-1182.985,845.354-1183.3,834.974Zm93.414-1.971V641.513c0-10.545,27.432-55.009-12.731-98.471A57.838,57.838,0,0,1-1124.81,502.8c-1.233-13.764-2.039-22.618.721-45.811,1.97-16.507,21.983-72.354,56.255-72.354,33.7,0,50.068,58.065,52.484,74.768,4.232,29.418,1.61,45.959,1.406,47.487a56.525,56.525,0,0,1-18.695,33.557c0,.2-.137.2-.137.2-38.691,37.926-15.559,88.878-15.559,101.213V832.641h-.12a.435.435,0,0,1,.12.362c-.323,10.776-9.529,19.352-20.776,19.352S-1089.564,843.778-1089.887,833Z" transform="translate(1609.61 -80.93)" fill="url(#a)"/></g></svg>