<svg xmlns="http://www.w3.org/2000/svg" xmlns:xlink="http://www.w3.org/1999/xlink" width="175.042" height="127.911" viewBox="0 0 175.042 127.911"><defs><linearGradient id="a" x1="0.5" x2="0.5" y2="1" gradientUnits="objectBoundingBox"><stop offset="0" stop-color="#ffbf69"/><stop offset="1" stop-color="#ff6536"/></linearGradient><filter id="b" x="0" y="0" width="175.042" height="127.911" filterUnits="userSpaceOnUse"><feOffset dy="3" input="SourceAlpha"/><feGaussianBlur stdDeviation="3" result="c"/><feFlood flood-opacity="0.161"/><feComposite operator="in" in2="c"/><feComposite in="SourceGraphic"/></filter></defs><g transform="matrix(1, 0, 0, 1, 0, 0)" filter="url(#b)"><path d="M-1841.284,125.276l-.008-.016a9.609,9.609,0,0,1-3.689-2.643c-1.893-2.223-1.144-13.619-.3-26.326.987-14.9,2.118-31.891,2.059-31.9-10.9-1.671-9.14-26.119-8.356-36.914.1-1.431.179-2.6.211-3.374a8.177,8.177,0,0,1,2.342-5.22,6.906,6.906,0,0,1,5.161-1.977l.058-.008a6.54,6.54,0,0,1,5.328,2.791,7.86,7.86,0,0,1,1.4,4.652c.076.718-.384,13.678-.409,13.726a7.337,7.337,0,0,0,.048.971,8.354,8.354,0,0,0,.734,2.743c.115.229-.115.386.023.386a1.321,1.321,0,0,0,.948-.368,3.115,3.115,0,0,0,.239-1.9c-.371-4.619.165-11.684.239-16.566a7.3,7.3,0,0,1,1.886-4.967,7.015,7.015,0,0,1,4.909-2.221l.04.007a6.881,6.881,0,0,1,5.006,1.877,7.367,7.367,0,0,1,2.224,5.146,11.058,11.058,0,0,0,.059,1.153c.41,7.2,2.214,38.857-8.73,40.355-1.276.172-.031,20.379.932,36.165.709,11.569,1.292,21.121-1.128,22.735l-.009.009a16.576,16.576,0,0,1-3.227,1.828,10.2,10.2,0,0,1-3.484.625c-.15.006-.3.01-.452.01A10.814,10.814,0,0,1-1841.284,125.276Zm4.241-5.385a5.224,5.224,0,0,0,1.531-.205,13.77,13.77,0,0,0,2.028-1.219c.5-.338-1-7.6-1.59-17.226-1.12-18.289-2.552-41.716,4.372-42.661,5.3-.725,3.772-27.734,3.416-33.876l-.065-1.276a1.4,1.4,0,0,0-.314-.94.727.727,0,0,0-.527-.18l-.024.008a.873.873,0,0,0-.625.247,1.3,1.3,0,0,0-.256.864l-.247,16.089a8.721,8.721,0,0,1-1.358,5.855,7.167,7.167,0,0,1-5.343,2.923,5.99,5.99,0,0,1-.815.04h-.017c-2.535-.074-4.224-1.647-5.3-3.739v-.014a14.488,14.488,0,0,1-1.366-4.86,13.5,13.5,0,0,1-.084-1.835c.133-4.571.207-9.181.4-13.745a1.568,1.568,0,0,0-.262-.88.547.547,0,0,0-.446-.2l-.05-.007a.954.954,0,0,0-.724.246l-.016.009a1.576,1.576,0,0,0-.461,1.037c-.033.848-.123,2.067-.229,3.557-.66,9.067-2.134,29.595,3.144,30.41,5.632.864,4.307,20.839,3.146,38.387-.759,11.381-1.433,21.59-1.152,21.92a3.37,3.37,0,0,0,1.332.948v-.011A4.487,4.487,0,0,0-1837.043,119.892Zm.313-77.707.025,0C-1836.725,42.183-1836.763,42.185-1836.73,42.185Zm-129.664,83.249a8.03,8.03,0,0,1-3.838-2.506c-1.868-2.19-1.193-13.231-.428-25.54l1.9-30.921a5.322,5.322,0,0,1-1.442-.435l-.008-.009c-3.772-1.738-5.993-8.694-6.95-16.566a85.076,85.076,0,0,1-.065-20.578,17.753,17.753,0,0,1,1.17-4.448l.09-.179a13.649,13.649,0,0,1,7.393-6.49,18.61,18.61,0,0,1,6.6-1.111,18.223,18.223,0,0,1,9.058,2.381,11.732,11.732,0,0,1,5.261,6.782,23.008,23.008,0,0,1,.7,3.477,94.081,94.081,0,0,1,.141,20.082c-.833,7.979-3.055,14.962-7.534,16.321a6.1,6.1,0,0,1-.931.214c-1.186.158-.1,19.919.749,35.324.625,11.306,1.136,20.634-1.268,22.241a16.232,16.232,0,0,1-3.163,1.795,9.751,9.751,0,0,1-3.416.609c-.237.01-.473.017-.707.017A11.06,11.06,0,0,1-1966.394,125.434Zm0-101.914a7.637,7.637,0,0,0-4.067,3.5,12.38,12.38,0,0,0-.684,2.809,77.867,77.867,0,0,0,.1,18.861c.725,5.954,1.878,10.978,3.368,11.72,5.4,1.154,4.217,20.427,3.18,37.35-.684,11.008-1.292,20.883-1.038,21.178a1.913,1.913,0,0,0,.946.617,5.859,5.859,0,0,0,1.952.166,5.091,5.091,0,0,0,1.466-.189l.015-.007a13.076,13.076,0,0,0,1.951-1.178c.544-.363-.962-7.387-1.48-16.765-.987-17.9-2.249-40.841,4.568-41.779,1.565-.545,2.586-5.37,3.181-11.069a87.323,87.323,0,0,0-.118-18.6,17.406,17.406,0,0,0-.485-2.511,5.774,5.774,0,0,0-2.584-3.337,12.041,12.041,0,0,0-5.881-1.464l-.123,0A12.327,12.327,0,0,0-1966.394,23.52Zm-1.391,36.87-.034-.015Zm73,64.409a53.7,53.7,0,0,1-37.918-16.1,53.646,53.646,0,0,1-15.439-37.616V70.52a53.7,53.7,0,0,1,16.1-37.927,53.63,53.63,0,0,1,37.615-15.44h.567a53.934,53.934,0,0,1,14.558,2.141,54.034,54.034,0,0,1,13.437,6.009,3.071,3.071,0,0,1,.982,4.233,3.074,3.074,0,0,1-4.233.989,47.768,47.768,0,0,0-11.9-5.312,47.647,47.647,0,0,0-12.763-1.892h-.123a47.489,47.489,0,0,0-33.816,13.668A47.492,47.492,0,0,0-1941.972,70.5v.058a47.508,47.508,0,0,0,13.662,33.818,47.555,47.555,0,0,0,33.57,14.251,47.7,47.7,0,0,0,19.919-4.174,47.659,47.659,0,0,0,16.353-12.071,3.069,3.069,0,0,1,4.339-.3,3.082,3.082,0,0,1,.3,4.35,53.952,53.952,0,0,1-18.477,13.65,53.866,53.866,0,0,1-22.021,4.714C-1894.48,124.8-1894.631,124.8-1894.782,124.8Zm7.88-17.836a3.091,3.091,0,0,1,2.115-3.8,34.662,34.662,0,0,0,20.875-16.443,34.512,34.512,0,0,0,3.121-26.318,34.561,34.561,0,0,0-16.443-20.832,34.626,34.626,0,0,0-26.349-3.119,34.479,34.479,0,0,0-13.241,7.106,34.538,34.538,0,0,0-8.926,12.086A3.079,3.079,0,0,1-1929.8,57.2a3.082,3.082,0,0,1-1.564-4.061,40.542,40.542,0,0,1,10.515-14.236,40.488,40.488,0,0,1,15.554-8.383h.008a40.77,40.77,0,0,1,31.067,3.649,40.679,40.679,0,0,1,19.352,24.512V58.7a40.681,40.681,0,0,1-3.683,31.044,40.734,40.734,0,0,1-24.537,19.349,3.026,3.026,0,0,1-.837.115A3.1,3.1,0,0,1-1886.9,106.963Zm-76.594-47.042-.642-.041a3.081,3.081,0,0,1-2.8-3.335,3.08,3.08,0,0,1,3.333-2.806l.149.015c.7,0,1.534-.906,2.3-2.388a19.236,19.236,0,0,0,1.812-8.481v-.009a19.211,19.211,0,0,0-1.672-8.52c-.741-1.492-1.54-2.423-2.23-2.431l-.14.017a3.086,3.086,0,0,1-3.641-2.4,3.081,3.081,0,0,1,2.4-3.639c.239-.048.477-.092.7-.115h.065l.1-.033h.55c3.23.033,5.946,2.272,7.733,5.864a25.549,25.549,0,0,1,2.308,11.3l-.009.008a25.4,25.4,0,0,1-2.5,11.266c-1.843,3.546-4.573,5.729-7.763,5.729Z" transform="translate(1986.81 -10.15)" fill="url(#a)"/></g></svg>