<svg xmlns="http://www.w3.org/2000/svg" xmlns:xlink="http://www.w3.org/1999/xlink" width="210.086" height="116.973" viewBox="0 0 210.086 116.973"><defs><linearGradient id="a" x1="0.5" x2="0.5" y2="1" gradientUnits="objectBoundingBox"><stop offset="0" stop-color="#ffbf69"/><stop offset="1" stop-color="#ff6536"/></linearGradient><filter id="b" x="0" y="83.979" width="180.378" height="22.349" filterUnits="userSpaceOnUse"><feOffset dy="3" input="SourceAlpha"/><feGaussianBlur stdDeviation="3" result="c"/><feFlood flood-opacity="0.161"/><feComposite operator="in" in2="c"/><feComposite in="SourceGraphic"/></filter><filter id="e" x="151.267" y="73.202" width="58.819" height="43.771" filterUnits="userSpaceOnUse"><feOffset dy="3" input="SourceAlpha"/><feGaussianBlur stdDeviation="3" result="f"/><feFlood flood-opacity="0.161"/><feComposite operator="in" in2="f"/><feComposite in="SourceGraphic"/></filter><filter id="h" x="16.058" y="0" width="140.239" height="116.771" filterUnits="userSpaceOnUse"><feOffset dy="3" input="SourceAlpha"/><feGaussianBlur stdDeviation="3" result="i"/><feFlood flood-opacity="0.161"/><feComposite operator="in" in2="i"/><feComposite in="SourceGraphic"/></filter></defs><g transform="translate(-40.509 -618.11)"><g transform="matrix(1, 0, 0, 1, 40.51, 618.11)" filter="url(#b)"><path d="M.016.848,162.378,0l-.016,3.5L0,4.349Z" transform="translate(9 89.98)" fill="url(#a)"/></g><g transform="matrix(1, 0, 0, 1, 40.51, 618.11)" filter="url(#e)"><path d="M40.819,12.673.117,0a19.094,19.094,0,0,1,4.55,12.861A19.415,19.415,0,0,1,0,25.771Z" transform="translate(160.27 79.2)" fill="url(#a)"/></g><g transform="matrix(1, 0, 0, 1, 40.51, 618.11)" filter="url(#h)"><path d="M0,98.771V21.3H8.649v7.277a21.315,21.315,0,0,1,6.908-6.407,18.985,18.985,0,0,1,9.335-2.136A22.131,22.131,0,0,1,37.547,23.73a22.65,22.65,0,0,1,8.279,10.415,38.019,38.019,0,0,1,2.8,14.739,37.441,37.441,0,0,1-3.085,15.478,23.254,23.254,0,0,1-8.965,10.546,23.015,23.015,0,0,1-12.366,3.666,17.867,17.867,0,0,1-8.517-2,19.388,19.388,0,0,1-6.2-5.062V98.771ZM13.263,33.143Q8.6,38.812,8.6,49.623T12.973,65.6a13.424,13.424,0,0,0,10.6,5.168A13.723,13.723,0,0,0,34.41,65.417q4.509-5.351,4.508-16.584,0-10.706-4.4-16.032T23.994,27.474Q17.93,27.474,13.263,33.143Zm98.744,44.165V40.869H71.825V77.308H61.594V0h10.23V31.746h40.183V0h10.231V77.308Z" transform="translate(25.06 6)" fill="url(#a)"/></g></g></svg>