<svg xmlns="http://www.w3.org/2000/svg" xmlns:xlink="http://www.w3.org/1999/xlink" width="278.383" height="254.601" viewBox="0 0 278.383 254.601"><defs><linearGradient id="a" x1="0.5" x2="0.5" y2="1" gradientUnits="objectBoundingBox"><stop offset="0" stop-color="#ffc766"/><stop offset="1" stop-color="#ff7541"/></linearGradient><filter id="b" x="0" y="0" width="278.383" height="254.601" filterUnits="userSpaceOnUse"><feOffset dy="3" input="SourceAlpha"/><feGaussianBlur stdDeviation="3" result="c"/><feFlood flood-opacity="0.161"/><feComposite operator="in" in2="c"/><feComposite in="SourceGraphic"/></filter></defs><g transform="matrix(1, 0, 0, 1, 0, 0)" filter="url(#b)"><path d="M130.192,199.673c-45.165,0-25.982,53.99-65.1,31.407s17.213-32.979-5.369-72.093c-10.895-18.867-25.176-18.492-37.04-18.115C9.953,141.277,0,141.68,0,118.3S9.953,95.324,22.684,95.73c11.867.375,26.148.752,37.043-18.115C82.308,38.5,25.982,28.1,65.1,5.522,71.207,1.992,75.93.359,79.663.071v0c20.156-1.558,12.423,36.86,50.529,36.86,45.165,0,25.981-53.99,65.1-31.407S178.075,38.5,200.656,77.615C211.548,96.48,225.83,96.1,237.7,95.73c12.732-.405,22.687-.809,22.687,22.572s-9.955,22.975-22.689,22.57c-11.865-.377-26.146-.752-37.038,18.115-22.582,39.114,33.746,49.51-5.369,72.093-6.766,3.906-11.787,5.522-15.7,5.522C160.885,236.6,167.544,199.673,130.192,199.673ZM78.116,118.3a52.076,52.076,0,1,0,52.076-52.078A52.075,52.075,0,0,0,78.116,118.3Z" transform="translate(9 6)" fill="url(#a)"/></g></svg>